<svg width="216" height="30" viewBox="0 0 216 30" fill="none" xmlns="http://www.w3.org/2000/svg">
<path d="M0 12.2034C0 5.13108 4.21333 0 10.7757 0C16.7265 0 19.8785 3.25702 20.6181 7.7302H16.919C16.3074 4.7697 14.1532 3.12498 10.7429 3.12498C5.66081 3.12498 3.69799 7.79622 3.69799 12.2034C3.69799 16.6106 5.17719 21.3154 10.5492 21.3154C14.3446 21.3154 17.3687 18.6178 17.4004 14.7041H10.6137V11.6775H21.0032V23.9794H18.559L17.6903 20.7224H17.6258C16.0175 23.1234 13.8621 24.4392 10.3566 24.4392C3.73084 24.4404 0 19.3093 0 12.2034ZM22.1947 19.6382C22.1947 15.8878 24.9606 14.7701 29.0459 13.9802C31.6192 13.4867 33.1958 13.1578 33.1958 11.5131C33.1958 10.2957 32.4879 9.27647 30.0755 9.27647C27.2122 9.27647 26.3446 10.1973 26.1838 12.4339H22.9672C23.128 9.21045 25.1871 6.67735 30.2046 6.67735C33.5821 6.67735 36.2833 8.12517 36.2833 12.4663V20.1641C36.2833 21.3814 36.4442 22.0057 37.0558 22.0057C37.1521 22.0057 37.2483 22.0057 37.442 21.9733V23.947C36.895 24.079 36.3479 24.1439 35.8337 24.1439C34.2571 24.1439 33.4212 23.5184 33.2287 21.6107H33.1641C32.1029 23.3539 30.2374 24.4392 27.5667 24.4392C24.2855 24.4392 22.1947 22.498 22.1947 19.6371V19.6382ZM28.2746 21.8412C31.105 21.8412 33.1958 20.361 33.1958 17.4329V15.0319C32.6816 15.5253 31.2659 15.8866 29.593 16.2492C26.698 16.841 25.4759 17.6634 25.4759 19.4066C25.4759 20.9853 26.3118 21.8412 28.2746 21.8412ZM45.9004 9.47338C43.5525 9.47338 42.0733 11.1505 42.0733 13.6836V23.9794H38.9212V7.20435H42.0733V9.31006H42.1378C43.0065 8.02672 44.5186 6.71094 46.9945 6.71094C49.2778 6.71094 50.6936 7.76379 51.3369 9.63901H51.4015C52.5919 8.02672 54.2648 6.71094 56.7735 6.71094C60.0864 6.71094 61.7593 8.75063 61.7593 12.3354V23.9794H58.6072V13.2227C58.6072 10.9861 58.1564 9.47222 55.7439 9.47222C53.3315 9.47222 51.9157 11.1494 51.9157 13.6825V23.9782H48.7636V13.2215C48.7636 10.9849 48.3129 9.47106 45.9004 9.47106V9.47338ZM63.1739 15.5589C63.1739 10.2957 66.2614 6.67735 71.28 6.67735C76.2987 6.67735 79.0645 10.0328 79.0645 15.2299C79.0645 15.6909 79.0645 16.1843 79.0328 16.4472H66.4234C66.4879 19.2433 68.0962 21.8424 71.3446 21.8424C74.2396 21.8424 75.3654 19.9347 75.6553 18.8159H78.872C78.0032 22.0393 75.5908 24.474 71.2812 24.474C66.07 24.474 63.175 20.6911 63.175 15.56L63.1739 15.5589ZM75.7833 13.9141C75.7833 11.2826 73.9825 9.30891 71.1838 9.30891C68.5459 9.30891 66.6159 11.1505 66.4234 13.9141H75.7833ZM85.4649 12.237C85.4649 5.13223 89.7111 0 96.2406 0C101.999 0 105.569 3.75043 106.116 8.45411H102.417C101.999 6.1515 100.583 3.12498 96.1772 3.12498C91.0951 3.12498 89.1652 7.5333 89.1652 12.2034C89.1652 16.8735 91.0951 21.3154 96.1772 21.3154C100.616 21.3154 102.193 18.2889 102.417 15.428H106.116C105.602 20.6587 101.999 24.4404 96.2089 24.4404C89.6794 24.4404 85.466 19.3093 85.466 12.237H85.4649ZM115.154 9.47338C112.452 9.47338 110.715 11.1505 110.715 13.6836V23.9794H107.563V0.460986H110.715V9.31006H110.78C111.649 8.02672 113.353 6.71094 116.184 6.71094C119.208 6.71094 121.652 8.4877 121.652 12.3354V23.9794H118.5V13.2227C118.5 10.9861 117.535 9.47222 115.154 9.47222V9.47338ZM123.035 19.6382C123.035 15.8878 125.801 14.7701 129.886 13.9802C132.459 13.4867 134.035 13.1578 134.035 11.5131C134.035 10.2957 133.327 9.27647 130.915 9.27647C128.051 9.27647 127.184 10.1973 127.023 12.4339H123.806C123.967 9.21045 126.026 6.67735 131.044 6.67735C134.421 6.67735 137.122 8.12517 137.122 12.4663V20.1641C137.122 21.3814 137.283 22.0057 137.895 22.0057C137.991 22.0057 138.087 22.0057 138.281 21.9733V23.947C137.734 24.079 137.187 24.1439 136.673 24.1439C135.096 24.1439 134.26 23.5184 134.068 21.6107H134.003C132.942 23.3539 131.076 24.4392 128.406 24.4392C125.125 24.4392 123.034 22.498 123.034 19.6371L123.035 19.6382ZM129.115 21.8412C131.945 21.8412 134.036 20.361 134.036 17.4329V15.0319C133.522 15.5253 132.106 15.8866 130.433 16.2492C127.538 16.841 126.316 17.6634 126.316 19.4066C126.316 20.9853 127.152 21.8412 129.115 21.8412ZM147.352 9.47338C144.65 9.47338 142.913 11.1505 142.913 13.6836V23.9794H139.761V7.20435H142.913V9.31006H142.978C143.847 8.02672 145.551 6.71094 148.382 6.71094C151.406 6.71094 153.85 8.4877 153.85 12.3354V23.9794H150.698V13.2227C150.698 10.9861 149.733 9.47222 147.352 9.47222V9.47338ZM155.747 24.6709H159.028C159.35 26.1835 160.444 27.3684 163.114 27.3684C166.105 27.3684 167.649 26.0202 167.649 22.8617V20.5915H167.584C166.684 21.9397 165.172 23.1246 162.534 23.1246C158.448 23.1246 155.296 20.2961 155.296 14.9346C155.296 9.57299 158.448 6.71094 162.534 6.71094C165.172 6.71094 166.684 7.99429 167.584 9.17802H167.649V7.20435H170.801V22.6648C170.801 27.731 167.809 30 163.113 30C158.416 30 156.068 27.6974 155.746 24.6709H155.747ZM163.114 20.4606C165.944 20.4606 167.617 18.5854 167.617 14.9346C167.617 11.2837 165.944 9.40852 163.114 9.40852C160.026 9.40852 158.579 11.7772 158.579 14.9346C158.579 18.092 160.026 20.4606 163.114 20.4606ZM172.281 15.5589C172.281 10.2957 175.369 6.67735 180.387 6.67735C185.406 6.67735 188.172 10.0328 188.172 15.2299C188.172 15.6909 188.172 16.1843 188.14 16.4472H175.531C175.595 19.2433 177.203 21.8424 180.452 21.8424C183.347 21.8424 184.473 19.9347 184.762 18.8159H187.979C187.11 22.0393 184.698 24.474 180.388 24.474C175.177 24.474 172.282 20.6911 172.282 15.56L172.281 15.5589ZM184.889 13.9141C184.889 11.2826 183.088 9.30891 180.29 9.30891C177.652 9.30891 175.722 11.1505 175.529 13.9141H184.889ZM192.803 23.9794H189.651V7.20435H192.803V10.3954H192.867C193.736 8.28964 195.055 6.80939 197.274 6.80939C197.853 6.80939 198.304 6.84182 198.786 6.90784V10.0004C198.4 9.93436 198.111 9.90193 197.725 9.90193C194.862 9.90193 192.804 12.1061 192.804 15.2971V23.9805L192.803 23.9794ZM198.207 18.3873H201.392C201.521 20.3286 202.678 21.8412 205.734 21.8412C208.5 21.8412 209.241 20.5915 209.241 19.3742C209.241 17.2684 207.053 17.0391 204.93 16.5781C202.067 15.8878 198.786 15.0319 198.786 11.5455C198.786 8.65102 201.07 6.70978 205.026 6.70978C209.529 6.70978 211.685 9.17687 211.91 12.0713H208.725C208.5 10.788 207.825 9.30775 205.091 9.30775C202.968 9.30775 202.067 10.1625 202.067 11.4135C202.067 13.1566 203.9 13.3211 206.215 13.8481C209.239 14.572 212.519 15.4604 212.519 19.2097C212.519 22.4667 210.075 24.4404 205.765 24.4404C200.779 24.4404 198.302 21.8088 198.205 18.3885L198.207 18.3873ZM210.792 3.15162C210.792 1.6065 211.945 0.460986 213.402 0.460986C214.858 0.460986 216 1.6065 216 3.15162C216 4.69673 214.858 5.84225 213.402 5.84225C211.945 5.84225 210.792 4.69673 210.792 3.15162ZM213.402 5.31871C214.631 5.31871 215.38 4.46276 215.38 3.14003C215.38 1.8173 214.631 0.971777 213.402 0.971777C212.173 0.971777 211.412 1.82773 211.412 3.14003C211.412 4.45234 212.173 5.31871 213.402 5.31871ZM212.26 1.63893H213.619C214.25 1.63893 214.641 1.93892 214.641 2.49488C214.641 2.88406 214.412 3.14003 214.064 3.21764V3.22922C214.781 3.35199 214.521 4.49635 214.684 4.54152V4.58554H213.825C213.674 4.46276 213.945 3.55121 213.325 3.55121H213.086V4.58554H212.26V1.63893ZM213.369 2.92923C213.652 2.92923 213.815 2.81804 213.815 2.58407C213.815 2.3281 213.652 2.23891 213.369 2.23891H213.086V2.92807H213.369V2.92923Z" fill="white"/>
</svg>
