<svg xmlns="http://www.w3.org/2000/svg" viewBox="0 0 181 50" fill="#1a1a1a"><path d="M30.2 2.1L18.5 47.9H9.4L0 2.1h8.7l5.5 31.6L21 2.1h5.3l6.9 31.6L38.7 2.1h8.7l-9.4 45.8h-9.1L22.1 17 30.2 2.1zm23.2 0h8.5v45.8h-8.5V2.1zm27.2 0c7.1 0 12.4 1.5 15.9 4.5 3.5 3 5.2 7.5 5.2 13.5 0 4-0.9 7.3-2.6 9.9-1.7 2.6-4.3 4.5-7.6 5.7l12.4 12.2h-11.1L82.2 36h-1.5v11.9h-8.5V2.1h9.4zm-0.6 7.6h-0.4v19.1h1.2c3.2 0 5.6-0.8 7.2-2.5 1.6-1.7 2.4-4.1 2.4-7.3 0-3-0.8-5.3-2.3-6.9-1.5-1.6-4-2.4-7.3-2.4h-0.8zm28 -7.6h27.8v8h-19.3v10.8h16.1v7.7h-16.1v11.3h19.7v8h-28.2V2.1zm38 0h11.3c7.6 0 13.3 2 17.1 5.9 3.8 3.9 5.7 9.6 5.7 17 0 7.5-1.9 13.3-5.8 17.2-3.9 3.9-9.5 5.8-17 5.8h-11.3V2.1zm8.5 7.9v30h2.5c4.3 0 7.5-1.3 9.6-3.8 2.1-2.5 3.2-6.3 3.2-11.3 0-5-1.1-8.8-3.2-11.2-2.1-2.4-5.3-3.7-9.6-3.7h-2.5z"/></svg>
