<svg width="771" height="124" viewBox="0 0 771 124" fill="none" xmlns="http://www.w3.org/2000/svg">
<path fill-rule="evenodd" clip-rule="evenodd" d="M61.8408 0C29.2342 0 2.52173 25.2354 0.168478 57.2411H0V61.8408V66.4405H0.168478C2.52173 98.4462 29.2342 123.682 61.8408 123.682C94.4473 123.682 121.16 98.4462 123.513 66.4405H123.682V61.8408V57.2411H123.513C121.16 25.2354 94.4473 0 61.8408 0ZM108.498 37.4411C99.7006 20.6533 82.1083 9.19946 61.8408 9.19946C41.5733 9.19946 23.9809 20.6533 15.1836 37.4411C16.5365 36.4822 17.9557 35.5766 19.4291 34.7271C30.5115 28.3373 45.5162 24.5319 61.8408 24.5319C78.1653 24.5319 93.1701 28.3373 104.253 34.7271C105.726 35.5766 107.145 36.4822 108.498 37.4411ZM113.229 57.2411C111.555 52.0585 107.045 46.9561 99.6574 42.6967C90.2076 37.2482 76.8473 33.7313 61.8408 33.7313C46.8342 33.7313 33.474 37.2482 24.0242 42.6967C16.6368 46.9561 12.1267 52.0585 10.4527 57.2411H61.8408H113.229ZM113.229 66.4405C111.555 71.623 107.045 76.7255 99.6574 80.9849C90.2076 86.4334 76.8473 89.9502 61.8408 89.9502C46.8342 89.9502 33.474 86.4334 24.0242 80.9849C16.6368 76.7255 12.1267 71.623 10.4527 66.4405H61.8408H113.229ZM61.8408 99.1497C78.1653 99.1497 93.1701 95.3443 104.253 88.9545C105.726 88.1049 107.145 87.1994 108.498 86.2405C99.7006 103.028 82.1083 114.482 61.8408 114.482C41.5733 114.482 23.981 103.028 15.1836 86.2405C16.5365 87.1994 17.9557 88.1049 19.4291 88.9545C30.5115 95.3443 45.5162 99.1497 61.8408 99.1497ZM236.409 93.323C239.408 94.8222 242.747 95.5717 246.426 95.5717C250.856 95.5717 254.842 94.4814 258.386 92.3008C261.997 90.0521 264.825 87.0197 266.87 83.2036C268.914 79.3875 269.936 75.0944 269.936 70.3243C269.936 65.5543 268.914 61.2612 266.87 57.4451C264.825 53.629 261.997 50.5966 258.386 48.3479C254.842 46.0991 250.856 44.9747 246.426 44.9747C242.815 44.9747 239.51 45.7584 236.511 47.3257C233.948 48.6375 231.801 50.4188 230.072 52.6697V21.5672H220.872V94.5496H230.072V87.9106C231.745 90.154 233.858 91.9581 236.409 93.323ZM252.968 84.7368C250.651 86.1678 247.96 86.8834 244.893 86.8834C241.895 86.8834 239.203 86.1678 236.818 84.7368C234.501 83.3058 232.695 81.3637 231.401 78.9105C230.174 76.3892 229.561 73.5271 229.561 70.3243C229.561 67.0534 230.208 64.1573 231.503 61.636C232.798 59.1146 234.603 57.1725 236.92 55.8096C239.237 54.3786 241.929 53.6631 244.995 53.6631C247.994 53.6631 250.651 54.3786 252.968 55.8096C255.285 57.1725 257.125 59.1146 258.488 61.636C259.851 64.1573 260.532 67.0193 260.532 70.2221C260.532 73.493 259.851 76.3892 258.488 78.9105C257.125 81.3637 255.285 83.3058 252.968 84.7368ZM162.216 23.6115V94.5496H168.758H171.825H209.44V85.759H171.825V62.4537H206.067V54.072H171.825V32.4021H208.929V23.6115H171.825H168.758H162.216ZM302.853 95.5717C298.015 95.5717 293.654 94.4814 289.769 92.3008C285.885 90.0521 282.819 87.0197 280.57 83.2036C278.321 79.3875 277.197 75.0604 277.197 70.2221C277.197 65.452 278.287 61.159 280.468 57.3429C282.716 53.5268 285.715 50.5285 289.463 48.3479C293.279 46.0991 297.538 44.9747 302.24 44.9747C306.737 44.9747 310.69 45.9969 314.097 48.0412C317.572 50.0855 320.264 52.9135 322.172 56.5252C324.148 60.1368 325.136 64.2254 325.136 68.7911C325.136 69.4725 325.102 70.2221 325.034 71.0399C324.966 71.7894 324.829 72.6753 324.625 73.6975H286.602C286.925 75.5882 287.504 77.3259 288.338 78.9105C289.701 81.4318 291.643 83.408 294.165 84.839C296.686 86.2019 299.582 86.8834 302.853 86.8834C305.579 86.8834 308.066 86.4063 310.315 85.4523C312.632 84.4983 314.608 83.0673 316.243 81.1593L322.172 87.19C319.855 89.9158 316.993 91.9942 313.586 93.4252C310.247 94.8562 306.669 95.5717 302.853 95.5717ZM288.236 61.2271C287.472 62.6743 286.934 64.2757 286.621 66.0313H316.17C315.919 64.0217 315.398 62.25 314.608 60.716C313.449 58.3991 311.814 56.6274 309.701 55.4008C307.589 54.106 305.034 53.4587 302.035 53.4587C298.901 53.4587 296.141 54.1401 293.756 55.503C291.371 56.8659 289.531 58.7739 288.236 61.2271ZM335.167 45.9969V94.5496H344.366V66.849C344.366 62.4196 345.457 59.1146 347.637 56.934C349.818 54.7534 352.612 53.6631 356.019 53.6631C357.654 53.6631 359.085 53.9016 360.312 54.3786C361.539 54.8556 362.663 55.6393 363.685 56.7296L369.716 50.4944C368.012 48.5182 366.172 47.1213 364.196 46.3035C362.22 45.4177 360.005 44.9747 357.552 44.9747C352.169 44.9747 348.046 46.8146 345.184 50.4944C344.897 50.8633 344.625 51.245 344.366 51.6393V45.9969H335.167ZM394.733 115.913C389.758 115.913 385.329 114.993 381.444 113.153C377.628 111.313 374.562 108.724 372.245 105.384L378.174 99.3537C380.15 101.875 382.501 103.783 385.226 105.078C387.952 106.441 391.189 107.122 394.937 107.122C399.911 107.122 403.83 105.793 406.692 103.136C409.622 100.546 411.087 97.0368 411.087 92.6075V86.1435C409.455 88.3768 407.342 90.1567 404.75 91.4831C401.82 92.9823 398.48 93.7318 394.733 93.7318C390.303 93.7318 386.317 92.6756 382.773 90.5631C379.298 88.4507 376.538 85.5546 374.494 81.8748C372.449 78.1268 371.427 73.936 371.427 69.3022C371.427 64.6684 372.449 60.5457 374.494 56.934C376.538 53.2542 379.298 50.3581 382.773 48.2456C386.317 46.065 390.303 44.9747 394.733 44.9747C398.549 44.9747 401.922 45.7243 404.852 47.2235C407.391 48.5224 409.469 50.2817 411.087 52.5014V45.9969H420.287V92.6075C420.287 97.2413 419.196 101.296 417.016 104.771C414.903 108.247 411.905 110.972 408.021 112.948C404.205 114.925 399.775 115.913 394.733 115.913ZM396.572 85.0435C399.571 85.0435 402.194 84.3961 404.443 83.1014C406.76 81.8066 408.532 80.0008 409.758 77.6839C410.985 75.2989 411.598 72.539 411.598 69.4044C411.598 66.2698 410.951 63.544 409.656 61.2271C408.43 58.8421 406.692 57.0022 404.443 55.7074C402.194 54.3445 399.537 53.6631 396.47 53.6631C393.404 53.6631 390.712 54.3445 388.395 55.7074C386.078 57.0022 384.238 58.8421 382.875 61.2271C381.581 63.544 380.933 66.2357 380.933 69.3022C380.933 72.3687 381.581 75.0944 382.875 77.4795C384.238 79.8645 386.078 81.7385 388.395 83.1014C390.78 84.3961 393.506 85.0435 396.572 85.0435ZM474.677 92.8119C479.038 94.6518 483.774 95.5717 488.885 95.5717C494.405 95.5717 499.345 94.6177 503.706 92.7097C508.136 90.8017 511.986 88.144 515.257 84.7368L508.613 78.195C506.364 80.7163 503.604 82.7266 500.333 84.2257C497.062 85.6568 493.212 86.3723 488.783 86.3723C485.035 86.3723 481.593 85.7249 478.459 84.4302C475.324 83.0673 472.598 81.1593 470.281 78.7061C467.965 76.2529 466.159 73.3568 464.864 70.0177C463.637 66.6786 463.024 63.0329 463.024 59.0806C463.024 55.1282 463.637 51.4825 464.864 48.1434C466.159 44.8044 467.965 41.9082 470.281 39.4551C472.598 37.0019 475.324 35.1279 478.459 33.8332C481.593 32.4703 485.035 31.7888 488.783 31.7888C492.939 31.7888 496.619 32.5043 499.822 33.9354C503.093 35.3664 505.853 37.3426 508.102 39.8639L514.746 33.2199C511.475 29.9489 507.727 27.3595 503.502 25.4514C499.277 23.5434 494.37 22.5894 488.783 22.5894C483.672 22.5894 478.936 23.5434 474.575 25.4514C470.281 27.2913 466.5 29.8808 463.229 33.2199C460.026 36.4908 457.539 40.3409 455.767 44.7703C453.995 49.1997 453.109 53.9698 453.109 59.0806C453.109 64.1232 453.995 68.8592 455.767 73.2886C457.539 77.718 460.026 81.6022 463.229 84.9413C466.5 88.2803 470.316 90.9039 474.677 92.8119ZM544.475 95.5717C540.046 95.5717 536.025 94.4814 532.414 92.3008C528.802 90.0521 525.94 87.0197 523.828 83.2036C521.783 79.3875 520.761 75.0944 520.761 70.3243C520.761 65.5543 521.783 61.2612 523.828 57.4451C525.94 53.629 528.768 50.5966 532.312 48.3479C535.923 46.0991 539.978 44.9747 544.475 44.9747C548.155 44.9747 551.426 45.7584 554.288 47.3257C556.84 48.6312 558.952 50.4019 560.625 52.6376V45.9969H569.927V94.5496H560.625V87.9446C559.007 90.1722 556.929 91.965 554.39 93.323C551.528 94.8222 548.223 95.5717 544.475 95.5717ZM546.008 86.8834C550.574 86.8834 554.254 85.3501 557.048 82.2836C559.842 79.149 561.239 75.1626 561.239 70.3243C561.239 66.9853 560.591 64.0891 559.297 61.636C558.07 59.1146 556.298 57.1725 553.981 55.8096C551.664 54.3786 548.973 53.6631 545.906 53.6631C542.84 53.6631 540.114 54.3786 537.729 55.8096C535.412 57.2407 533.572 59.2169 532.209 61.7382C530.915 64.1914 530.267 67.0193 530.267 70.2221C530.267 73.493 530.915 76.3892 532.209 78.9105C533.572 81.3637 535.446 83.3058 537.831 84.7368C540.216 86.1678 542.942 86.8834 546.008 86.8834ZM598.857 93.323C601.856 94.8222 605.195 95.5717 608.875 95.5717C613.304 95.5717 617.29 94.4814 620.834 92.3008C624.446 90.0521 627.274 87.0197 629.318 83.2036C631.362 79.3875 632.384 75.0944 632.384 70.3243C632.384 65.5543 631.362 61.2612 629.318 57.4451C627.274 53.629 624.446 50.5966 620.834 48.3479C617.29 46.0991 613.304 44.9747 608.875 44.9747C605.263 44.9747 601.958 45.7584 598.96 47.3257C596.396 48.6375 594.249 50.4188 592.52 52.6697V45.9969H583.321V114.891H592.52V87.9106C594.193 90.154 596.306 91.9581 598.857 93.323ZM615.417 84.7368C613.1 86.1678 610.408 86.8834 607.341 86.8834C604.343 86.8834 601.651 86.1678 599.266 84.7368C596.949 83.3058 595.144 81.3637 593.849 78.9105C592.622 76.3892 592.009 73.5271 592.009 70.3243C592.009 67.0534 592.656 64.1573 593.951 61.636C595.246 59.1146 597.052 57.1725 599.369 55.8096C601.685 54.3786 604.377 53.6631 607.444 53.6631C610.442 53.6631 613.1 54.3786 615.417 55.8096C617.733 57.1725 619.573 59.1146 620.936 61.636C622.299 64.1573 622.98 67.0193 622.98 70.2221C622.98 73.493 622.299 76.3892 620.936 78.9105C619.573 81.3637 617.733 83.3058 615.417 84.7368ZM642.916 94.5496V45.9969H652.115V94.5496H642.916ZM647.516 36.2864C645.812 36.2864 644.415 35.7412 643.325 34.6509C642.234 33.4924 641.689 32.0614 641.689 30.3578C641.689 28.7224 642.234 27.3595 643.325 26.2692C644.415 25.1107 645.812 24.5315 647.516 24.5315C649.219 24.5315 650.616 25.1107 651.706 26.2692C652.797 27.3595 653.342 28.7224 653.342 30.3578C653.342 32.0614 652.797 33.4924 651.706 34.6509C650.616 35.7412 649.219 36.2864 647.516 36.2864ZM673.134 54.3786V94.5496H682.334V54.3786H694.293V45.9969H682.334V25.6559H673.134V45.9969H661.175V54.3786H673.134ZM722.455 95.5717C718.026 95.5717 714.005 94.4814 710.394 92.3008C706.782 90.0521 703.92 87.0197 701.807 83.2036C699.763 79.3875 698.741 75.0944 698.741 70.3243C698.741 65.5543 699.763 61.2612 701.807 57.4451C703.92 53.629 706.748 50.5966 710.292 48.3479C713.903 46.0991 717.958 44.9747 722.455 44.9747C726.135 44.9747 729.406 45.7584 732.268 47.3257C734.82 48.6312 736.932 50.4019 738.605 52.6376V45.9969H747.907V94.5496H738.605V87.9446C736.987 90.1722 734.909 91.965 732.37 93.323C729.508 94.8222 726.203 95.5717 722.455 95.5717ZM723.988 86.8834C728.554 86.8834 732.234 85.3501 735.028 82.2836C737.822 79.149 739.219 75.1626 739.219 70.3243C739.219 66.9853 738.571 64.0891 737.277 61.636C736.05 59.1146 734.278 57.1725 731.961 55.8096C729.644 54.3786 726.953 53.6631 723.886 53.6631C720.82 53.6631 718.094 54.3786 715.709 55.8096C713.392 57.2407 711.552 59.2169 710.189 61.7382C708.895 64.1914 708.247 67.0193 708.247 70.2221C708.247 73.493 708.895 76.3892 710.189 78.9105C711.552 81.3637 713.426 83.3058 715.811 84.7368C718.196 86.1678 720.922 86.8834 723.988 86.8834ZM761.301 21.5672V94.5496H770.5V21.5672H761.301Z" fill="#1a1a1a"/>
</svg>
