<svg id="Layer_1" data-name="Layer 1" xmlns="http://www.w3.org/2000/svg" viewBox="0 0 1892.5821 366.5379"><defs><style>.cls-1{fill:#fff;}.cls-2{fill:none;}.cls-3{fill:#010101;}.cls-4{fill:#163963;}</style></defs><title>logo-white</title><path class="cls-1" d="M1223.287,288.869a42.0371,42.0371,0,0,1,15.45,14.985,39.3552,39.3552,0,0,1,5.713,20.755,39.9572,39.9572,0,0,1-5.713,20.873,42.9691,42.9691,0,0,1-73.697,0,39.9394,39.9394,0,0,1-5.713-20.873,39.3394,39.3394,0,0,1,5.713-20.755,42.01,42.01,0,0,1,15.45-14.985,44.101,44.101,0,0,1,42.796,0Zm-38.54,6.24a34.2835,34.2835,0,0,0-12.593,12.36,32.8156,32.8156,0,0,0-4.665,17.14,33.42,33.42,0,0,0,4.665,17.259,34.4337,34.4337,0,0,0,12.594,12.535,33.743,33.743,0,0,0,17.257,4.606,33.2276,33.2276,0,0,0,17.084-4.606,34.595,34.595,0,0,0,12.535-12.535,33.4446,33.4446,0,0,0,4.6639-17.259,32.8387,32.8387,0,0,0-4.6639-17.14,34.4427,34.4427,0,0,0-12.535-12.36,33.5656,33.5656,0,0,0-17.084-4.5491,34.0871,34.0871,0,0,0-17.257,4.5481Z" transform="translate(-0.001 0)"/><path class="cls-2" d="M588.655,87.144c0-24.827-9.932-38.978-29.546-38.978-19.861,0-29.792,14.151-29.792,38.978,0,22.894,8.45,37.331,25.336,39.444q5.365-.151,10.755-.298C580.844,123.349,588.655,109.154,588.655,87.144Z" transform="translate(-0.001 0)"/><path class="cls-2" d="M1795.2581,52.138l-14.151,51.641h28.3039Zm-559.36,51.641h28.304L1250.049,52.138Z" transform="translate(-0.001 0)"/><path class="cls-3" d="M1704.1431,153.383v-.103l-.037.105Z" transform="translate(-0.001 0)"/><path class="cls-1" d="M303.318,325.659h7.113v29.852a45.0474,45.0474,0,0,1-13.818,7.87,46.6391,46.6391,0,0,1-16.033,2.858,42.5531,42.5531,0,0,1-36.732-20.757,39.9406,39.9406,0,0,1-5.713-20.872,39.341,39.341,0,0,1,5.713-20.756,41.7506,41.7506,0,0,1,15.567-14.985,43.1737,43.1737,0,0,1,21.515-5.538,45.2313,45.2313,0,0,1,16.033,2.915,43.8092,43.8092,0,0,1,13.701,8.162L306,300.122a35.4733,35.4733,0,0,0-11.544-7.172,37.4491,37.4491,0,0,0-13.526-2.507,33.98,33.98,0,0,0-17.375,4.607,34.75,34.75,0,0,0-12.594,12.418,32.8163,32.8163,0,0,0-4.664,17.142,33.33,33.33,0,0,0,4.664,17.316,34.8051,34.8051,0,0,0,30.085,17.083,36.479,36.479,0,0,0,11.603-1.924,39.9926,39.9926,0,0,0,10.669-5.423Zm118.356,39.88-17.608-26.587q-3.7329.2351-5.713.234h-22.39v26.353h-8.045v-81.51h30.435q15.2739,0,23.613,7.056,8.335,7.0571,8.337,19.998,0,10.144-4.898,16.908a25.544,25.544,0,0,1-13.993,9.445l19.59,28.103Zm-23.321-33.583q11.658,0,17.957-5.306,6.297-5.304,6.297-15.334,0-9.795-6.297-14.925t-17.957-5.131h-22.39v40.696Zm143.718-43.087a42.0381,42.0381,0,0,1,15.45,14.985,39.3578,39.3578,0,0,1,5.714,20.755,39.9576,39.9576,0,0,1-5.714,20.873,42.969,42.969,0,0,1-73.696,0,39.9408,39.9408,0,0,1-5.714-20.873,39.34,39.34,0,0,1,5.714-20.755,42.01,42.01,0,0,1,15.45-14.985,44.1012,44.1012,0,0,1,42.795,0Zm-38.54,6.24a34.2835,34.2835,0,0,0-12.593,12.36,32.8161,32.8161,0,0,0-4.664,17.14,33.42,33.42,0,0,0,4.664,17.259,34.4345,34.4345,0,0,0,12.594,12.535,33.7427,33.7427,0,0,0,17.2571,4.606,33.2273,33.2273,0,0,0,17.0839-4.606,34.595,34.595,0,0,0,12.535-12.535,33.4441,33.4441,0,0,0,4.665-17.259,32.84,32.84,0,0,0-4.665-17.14,34.4419,34.4419,0,0,0-12.535-12.36,33.5656,33.5656,0,0,0-17.0839-4.5491,34.0872,34.0872,0,0,0-17.2571,4.5481Zm207.68-11.196h8.513l-27.636,81.626h-8.396l-22.972-71.48-23.205,71.48h-8.279l-27.52-81.626h8.746l23.205,73.114,23.088-73.113h8.163l23.205,73.113Zm44.31,0H817.44v7.347H790.503v74.279h-8.046v-74.28H755.521Zm109.844.117h8.046v37.315h50.958V284.03h8.046v81.509h-8.046V328.575H873.411v36.964h-8.045Zm192.402,0h54.573v7.23h-46.527v29.152h41.63v7.23h-41.63V358.31h48.042v7.23h-56.0871Zm252.863,67.982q6.8211,6.9971,18.949,6.997,12.126,0,18.89-6.997,6.7618-6.996,6.7629-19.59V283.913h8.047v48.51q0,15.86-8.92,24.837-8.922,8.98-24.78,8.979-15.86,0-24.838-8.98-8.98-8.9771-8.978-24.837V283.913h8.0451v48.51q0,12.593,6.822,19.59Zm110.2519-67.982h8.0461v81.509h-8.0451Zm55.9711-.117h61.918v7.347h-26.936v74.279h-8.0461v-74.28h-26.936Zm168.8469.117-31.3669,52.474v29.035h-8.047V336.504l-31.833-52.474h8.396l27.519,43.845,26.9361-43.845Z" transform="translate(-0.001 0)"/><path class="cls-1" d="M1212.1609,339.7541l5.6894-5.6894,26.7838,26.7838-5.6894,5.6894Z" transform="translate(-0.001 0)"/><path class="cls-2" d="M1250.049,52.138l-14.1511,51.641h28.304Zm545.2091,0-14.151,51.641h28.3039Z" transform="translate(-0.001 0)"/><path class="cls-2" d="M554.653,126.588a35.8007,35.8007,0,0,0,4.457.28,33.5594,33.5594,0,0,0,6.2979-.578c11.662-2.222,18.9651-10.876,21.842-24.463a71.1072,71.1072,0,0,0,1.4051-14.683c0-24.827-9.932-38.978-29.5461-38.978-19.861,0-29.792,14.151-29.792,38.978a70.673,70.673,0,0,0,1.435,14.754c3.0511,14.26,11.01,23.077,23.901,24.69Z" transform="translate(-0.001 0)"/><path class="cls-4" d="M1704.1431,153.28l-.037.105.037-.002Z" transform="translate(-0.001 0)"/><path class="cls-2" d="M1704.1431,153.383v-.103l-.037.105ZM587.25,101.827c.116-.55.204-1.13.306-1.696a73.06,73.06,0,0,0,1.1-12.986c0-10.862-1.902-19.68-5.683-26.165q-.405-.694-.839-1.353a26.2844,26.2844,0,0,0-2.862-3.626,24.0524,24.0524,0,0,0-2.195-2.048,23.4667,23.4667,0,0,0-2.424-1.747,24.2913,24.2913,0,0,0-4.064-2.045,31.2575,31.2575,0,0,0-11.48-1.995,30.8848,30.8848,0,0,0-13.033,2.599,24.0561,24.0561,0,0,0-9.31,7.58c-4.965,6.641-7.448,16.386-7.448,28.8a71.1474,71.1474,0,0,0,1.338,14.227c.035.172.06.356.096.526a47.9967,47.9967,0,0,0,1.336,4.959c3.729,11.338,11.243,18.315,22.566,19.732a35.8051,35.8051,0,0,0,4.456.28,33.552,33.552,0,0,0,6.2979-.579c10.368-1.975,17.2811-9.044,20.712-20.132q.6639-2.1386,1.13-4.331Z" transform="translate(-0.001 0)"/><path class="cls-2" d="M1235.8979,103.779h28.304L1250.049,52.138Zm559.36-51.641-14.151,51.641h28.3039l-8.961-32.697-5.1921-18.944Z" transform="translate(-0.001 0)"/><path class="cls-1" d="M461.851,103.003c-9.873-46.595-79.014-40.56-79.014-51.858,0-4.965,5.463-6.207,13.904-6.207,19.614,0,38.73,4.966,49.655,9.931L456.575,9.683A230.2063,230.2063,0,0,0,392.271,0c-42.703,0-71.254,20.359-71.503,57.849-.22,28.141,15.234,41.822,32.524,49.414a119.0321,119.0321,0,0,0,17.974,6.021c15.45,4.006,28.454,5.336,28.454,10.358,0,3.475-3.228,6.206-13.904,6.206-23.835,0-39.475-5.959-55.365-13.654l-4.178,18.648-.1.45-5.901,26.336c18.868,7.448,39.724,12.661,69.765,12.661,37.848,0,64.38-13.495,71.227-43.253.11-.477.229-.947.329-1.433a74.0414,74.0414,0,0,0,1.437-14.9c0-2.05-.102-4.014-.29-5.904a53.5061,53.5061,0,0,0-.89-5.796Zm993.273-14.12L1405.717,3.227h-64.552V153.351l-2.8459-8.12-1.33-3.79-3.55-10.127L1288.5331,3.227h-77.215l-43.43,124.4-1.3641,3.908-.8039,2.304-6.7841,19.433V3.227h-64.302v60.33h-41.712V3.229H988.62V171.063h64.302V108.746h41.711v62.317h123.14l4.036-15.199,3.4129-12.856h49.6541l3.571,13.014,4.127,15.04H1400.503V84.912l14.225,23.283,14.225,23.284,7.22,11.816,5.587,9.146,1.35,2.21,10.027,16.412h61.3249V3.227h-59.338Zm-219.2259,14.896L1250.05,52.138l14.152,51.641ZM62.566,51.145c0-4.965,5.462-6.207,13.904-6.207,19.614,0,38.73,4.966,49.655,9.931L136.304,9.683A230.1984,230.1984,0,0,0,72,0C29.297,0,.746,20.359.497,57.849,0,121.407,79.449,111.227,79.449,123.642c0,3.475-3.228,6.206-13.904,6.206-23.835,0-39.476-5.959-55.365-13.654L2.257,151.557l-.776,3.463-1.41,6.29-.07.318c.117.046.237.09.355.137,18.776,7.374,39.556,12.525,69.41,12.525,30.038,0,52.914-8.532,64.52-26.913.335-.532.696-1.041,1.012-1.59a50.9,50.9,0,0,0,4.26-9.634,61.2621,61.2621,0,0,0,2.281-9.517,76.0939,76.0939,0,0,0,.921-11.932c0-59.339-80.194-51.394-80.194-63.559Zm184.219,52.883a37.9549,37.9549,0,0,1-1.303,11.01c-1.511,4.886-4.627,8.391-10.725,9.481a23.4545,23.4545,0,0,1-3.155.33c-.394.016-.788.033-1.203.033-7.471,0-11.583-2.687-13.789-7.062-1.825-3.622-2.349-8.395-2.349-13.792V3.228h-64.8V104.772a90.29,90.29,0,0,0,2.23,20.556,69.195,69.195,0,0,0,2.663,8.78,57.656,57.656,0,0,0,5.002,10.196c.191.306.41.588.608.89,12.89,19.743,37.196,29.096,70.435,29.096,37.91,0,64.377-12.132,75.42-38.016.071-.167.1319-.342.202-.51a71.6115,71.6115,0,0,0,4.742-18.215c.328-2.49.566-5.06.693-7.723.08-1.654.13-3.333.13-5.054V3.228H246.785Zm515.4,82.444a510.456,510.456,0,0,0-137.628-32.618,75.9464,75.9464,0,0,0,18.255-21.492,78.95,78.95,0,0,0,3.982-7.98,86.4146,86.4146,0,0,0,5.447-18.155c.223-1.19.432-2.389.612-3.605a104.0384,104.0384,0,0,0,1.098-15.229C653.951,33.021,615.469,0,559.11,0c-56.607,0-95.09,33.02-95.09,87.393a103.9555,103.9555,0,0,0,1.163,15.53q.4429,2.8911,1.063,5.751a83.3588,83.3588,0,0,0,7.175,20.504c.297.583.636,1.133.947,1.705a76.7093,76.7093,0,0,0,22.785,25.76,85.3446,85.3446,0,0,0,14.032,8.181c28.775.833,52.461,2.564,75.284,5.774,55.374,7.79,105.713,24.284,211.591,57.78,173.487,54.885,255.128-17.25,255.128-17.25S922.065,249.198,762.185,186.472ZM587.557,100.131c-.103.565-.19,1.146-.307,1.696q-.4656,2.19-1.13,4.33c-3.43,11.089-10.344,18.157-20.712,20.133a33.56,33.56,0,0,1-6.298.578,35.8063,35.8063,0,0,1-4.456-.28c-11.323-1.417-18.838-8.393-22.567-19.731a48.0239,48.0239,0,0,1-1.335-4.959c-.036-.17-.06-.354-.096-.527a71.1474,71.1474,0,0,1-1.338-14.227c0-12.413,2.482-22.158,7.448-28.8a24.0568,24.0568,0,0,1,9.31-7.58,30.8844,30.8844,0,0,1,13.034-2.599,31.2569,31.2569,0,0,1,11.479,1.996,24.2865,24.2865,0,0,1,4.064,2.044,23.4518,23.4518,0,0,1,2.424,1.747,24.0232,24.0232,0,0,1,2.195,2.049,26.2907,26.2907,0,0,1,2.862,3.625q.4341.659.84,1.354c3.78,6.484,5.681,15.302,5.681,26.164a73.0689,73.0689,0,0,1-1.098,12.987Z" transform="translate(-0.001 0)"/><path class="cls-1" d="M665.302,133.054a56.3422,56.3422,0,0,0,10.07,17.527,53.9811,53.9811,0,0,0,5.359,5.431c20.36,4.307,47.489,10.435,73.877,17.586,21.463-1.768,38.493-8.12,50.164-19.447a54.1935,54.1935,0,0,0,10.065-13.427c4.454-8.327,7.102-18.278,7.79-29.912.12-2.01.198-4.055.198-6.167V3.152H758.058v100.75c0,1.531-.047,3.016-.153,4.447-.7,9.465-4.1531,16.396-16.225,16.396-12.252,0-15.496-7.208-16.033-17.298q-.0954-1.7709-.096-3.545V3.152H660.7829V104.645c0,.563.022,1.108.03,1.664A81.7616,81.7616,0,0,0,665.302,133.054Zm310.906,17.283V124.183l-2.113-.045H900.733V108.745h66.04V65.048h-66.04V50.4h75.475V3.228H837.671V171.062H976.208Zm905.572-10.09-1.357-3.87-5.2281-14.911-3.8249-10.912L1833.7419,3.228H1756.527l-41.66,119.334-4.92,14.094-3.874,11.096-1.93,5.528v.103l-.036.002.036-.105V3.228h-59.338V88.882l-49.407-85.654h-64.551V171.062h59.337V84.911l25.9261,42.434,8.237,13.483,5.776,9.455,3.4,5.566,9.2951,15.213h120.165l5.8321-21.97,1.0059-3.79.61-2.296h49.6551l.041.15.265.966,7.391,26.94h64.8Zm-100.673-36.468,14.152-51.641,5.1911,18.944,8.961,32.697Z" transform="translate(-0.001 0)"/><path class="cls-4" d="M1235.8979,103.779l14.1511-51.641Z" transform="translate(-0.001 0)"/><path class="cls-4" d="M559.11,48.166a30.8844,30.8844,0,0,0-13.034,2.599,30.885,30.885,0,0,1,13.034-2.6Zm28.14,53.661c.117-.55.204-1.13.307-1.696C587.454,100.696,587.367,101.277,587.25,101.827Zm-56.595-.455c.036.172.06.356.097.526-.036-.17-.061-.354-.096-.526Z" transform="translate(-0.001 0)"/><path class="cls-4" d="M1590.184,84.911l25.925,42.434Zm-189.6809,0,14.2249,23.283Zm394.755-32.773,5.192,18.944Z" transform="translate(-0.001 0)"/><path class="cls-1" d="M762.185,186.472a510.456,510.456,0,0,0-137.628-32.618c-42.613-2.381-118.394,8.64-113.372,10.97,28.776.833,52.461,2.563,75.285,5.774,55.3729,7.789,105.7119,24.283,211.59,57.78,173.487,54.885,255.1281-17.25,255.1281-17.25s-131.122,38.07-291.002-24.656Z" transform="translate(-0.001 0)"/></svg>